<?xml version="1.0" encoding="UTF-8"?>
<!DOCTYPE svg PUBLIC "-//W3C//DTD SVG 1.1//EN" "http://www.w3.org/Graphics/SVG/1.1/DTD/svg11.dtd">
<!-- Creator: CorelDRAW X7 -->
<svg xmlns="http://www.w3.org/2000/svg" xml:space="preserve" width="956px" height="386px" version="1.1" style="shape-rendering:geometricPrecision; text-rendering:geometricPrecision; image-rendering:optimizeQuality; fill-rule:evenodd; clip-rule:evenodd"
viewBox="0 0 937 379"
 xmlns:xlink="http://www.w3.org/1999/xlink">
 <defs>
  <style type="text/css">
   <![CDATA[
    .fil0 {fill:#EE7B24;fill-rule:nonzero}
    .fil1 {fill:white;fill-rule:nonzero}
   ]]>
  </style>
 </defs>
 <g id="Layer_x0020_1">
  <metadata id="CorelCorpID_0Corel-Layer"/>
  <path class="fil0" d="M727 285l-135 0 0 -30 135 0 0 30zm18 -249c-23,-24 -52,-36 -86,-36 -34,0 -63,12 -87,36 -23,23 -35,52 -35,86 0,33 12,62 35,87 6,6 13,11 19,15l0 18 38 0 0 -1 0 -37c-12,-5 -22,-11 -31,-21 -17,-17 -26,-37 -26,-61 0,-24 9,-45 26,-61 17,-17 37,-26 61,-26 24,0 44,9 61,26 17,16 26,37 26,61 0,24 -9,44 -26,61 -9,10 -19,17 -31,21l0 37 0 1 38 0 0 -18c6,-4 12,-9 18,-15 24,-25 36,-54 36,-87 0,-34 -12,-63 -36,-86zm-35 337l-101 0 0 -30 101 0 0 30zm17 -44l-135 0 0 -30 135 0 0 30z"/>
  <path class="fil1" d="M211 287l0 20 7 0c4,0 7,-1 9,-3 2,-1 3,-4 3,-7 0,-3 -1,-5 -3,-7 -2,-2 -5,-3 -9,-3l-7 0zm574 -2l0 23 7 0c4,0 7,-1 9,-3 2,-2 3,-5 3,-9 0,-3 -1,-6 -3,-8 -2,-2 -5,-3 -9,-3l-7 0zm-42 88l0 -119 54 0c15,0 27,4 35,10 9,7 13,17 13,30 0,9 -2,15 -6,21 -5,5 -10,9 -17,10l31 48 -47 0 -21 -39 0 39 -42 0zm-264 0l-37 0 -35 -119 43 0 14 76 13 -76 30 0 14 76 13 -76 43 0 -35 119 -37 0 -13 -52 -13 52zm-137 -35c6,0 11,-2 15,-6 4,-4 6,-10 6,-17 0,-7 -2,-13 -6,-17 -4,-4 -8,-6 -15,-6 -6,0 -11,2 -15,6 -3,5 -5,10 -5,17 0,4 0,7 1,10 1,2 3,5 4,7 4,4 9,6 15,6zm65 -23c0,9 -1,17 -4,25 -4,8 -8,14 -14,20 -6,6 -13,11 -21,14 -8,3 -17,5 -26,5 -9,0 -17,-2 -25,-5 -8,-3 -15,-8 -21,-14 -6,-6 -11,-12 -14,-20 -3,-8 -5,-16 -5,-25 0,-9 2,-17 5,-25 3,-7 8,-14 14,-20 6,-6 13,-11 21,-14 8,-3 16,-5 25,-5 9,0 18,2 26,5 8,3 15,8 21,14 6,6 10,12 14,20 3,8 4,16 4,25zm-239 58l0 -119 51 0c18,0 31,4 40,11 8,6 12,17 12,32 0,14 -4,25 -11,31 -8,7 -19,10 -35,10l-14 0 0 35 -43 0z"/>
  <path class="fil1" d="M134 77l40 0 0 146 -40 0 0 -146zm765 0l0 91 -66 -91 -39 0 0 146 39 0c0,0 0,-61 0,-91l66 91 38 0 0 -146 -38 0zm-793 100c-7,8 -17,12 -28,12 -22,0 -39,-18 -39,-40 0,-22 17,-41 39,-41 11,0 21,6 28,14l19 -32c-13,-10 -29,-16 -47,-16 -43,0 -78,34 -78,76 0,42 35,77 78,77 18,0 34,-6 47,-17l-19 -33zm348 16l14 0c9,0 16,-1 20,-3 4,-3 6,-7 6,-12 0,-6 -2,-11 -6,-13 -3,-3 -10,-4 -19,-4l-15 0 0 32zm0 -58l8 0c10,0 17,-1 20,-3 4,-2 6,-6 6,-11 0,-6 -2,-10 -5,-12 -4,-2 -11,-3 -20,-3l-9 0 0 29zm-37 88l0 -146 40 0c17,0 28,1 35,2 6,1 12,3 16,5 6,3 10,7 13,12 3,5 4,11 4,17 0,9 -2,15 -6,20 -5,5 -11,9 -20,11 10,1 18,5 24,11 6,7 9,15 9,26 0,8 -2,15 -5,21 -4,6 -8,10 -14,13 -5,3 -12,5 -19,6 -7,1 -19,2 -36,2l-41 0zm-102 0l0 -146 89 0 0 32 -50 0 0 25 47 0 0 32 -47 0 0 24 50 0 0 33 -89 0zm-85 -77l8 0c8,0 15,-2 18,-4 4,-3 6,-8 6,-14 0,-7 -1,-13 -5,-16 -4,-3 -10,-4 -19,-4l-8 0 0 38zm-37 77l0 -146 42 0c16,0 27,1 34,2 6,2 12,4 16,8 5,4 9,9 12,15 3,6 5,13 5,20 0,12 -3,21 -9,28 -5,7 -13,12 -24,14l40 59 -45 0 -34 -57 0 57 -37 0z"/>
 </g>
</svg>
